<svg width="343" height="343" viewBox="0 0 343 343" fill="none" xmlns="http://www.w3.org/2000/svg">
<path d="M264.464 161.392C264.464 212.55 222.986 254.042 171.813 254.042C120.64 254.042 79.1485 212.55 79.1485 161.392C79.1448 156.213 79.5767 151.044 80.4397 145.937C84.0938 167.527 95.2749 187.126 112.001 201.258C128.727 215.39 149.917 223.144 171.813 223.143C217.724 223.143 255.83 189.748 263.173 145.932C264.038 151.04 264.47 156.212 264.464 161.392Z" fill="url(#paint0_linear_360_72)"/>
<path d="M171.813 236.717C123.53 236.717 83.9233 199.824 79.5675 152.71C79.2995 155.57 79.1485 158.459 79.1485 161.387C79.1485 212.546 120.631 254.038 171.813 254.038C222.996 254.038 264.464 212.55 264.464 161.392C264.464 158.469 264.318 155.575 264.05 152.715C259.689 199.824 220.068 236.717 171.813 236.717Z" fill="url(#paint1_linear_360_72)"/>
<path d="M250.817 139.389V164.398C244.279 177.783 234.58 189.373 222.558 198.168V139.389H250.817Z" fill="url(#paint2_linear_360_72)"/>
<path d="M92.7956 139.389V164.398C99.3329 177.783 109.032 189.373 121.055 198.168V139.389H92.7956Z" fill="url(#paint3_linear_360_72)"/>
<path d="M171.809 164.579H129.532V168.603C129.534 169.648 129.949 170.649 130.688 171.387C131.428 172.125 132.429 172.54 133.474 172.54H210.143C210.66 172.54 211.172 172.438 211.65 172.24C212.127 172.042 212.561 171.752 212.927 171.387C213.293 171.021 213.583 170.587 213.78 170.11C213.978 169.632 214.08 169.12 214.08 168.603V164.579H171.809Z" fill="url(#paint4_linear_360_72)"/>
<path d="M93.8334 136.056H120.041C120.558 136.056 121.07 135.955 121.548 135.757C122.025 135.559 122.459 135.269 122.825 134.903C123.19 134.538 123.48 134.104 123.678 133.626C123.876 133.149 123.978 132.637 123.978 132.12V129.635H89.9113V132.12C89.9126 133.161 90.3257 134.159 91.0606 134.897C91.7954 135.634 92.7923 136.051 93.8334 136.056Z" fill="url(#paint5_linear_360_72)"/>
<path d="M121.771 129.64C124.597 128.227 127.983 121.873 123.89 117.069C119.798 112.265 106.935 110.429 106.935 106.896C106.935 110.429 94.0819 112.256 89.9844 117.069C85.8868 121.883 89.2779 128.227 92.1038 129.64H121.771Z" fill="url(#paint6_linear_360_72)"/>
<path d="M110.477 88.8397C111.367 90.4193 111.715 92.2466 111.469 94.0427C111.223 95.8389 110.397 97.5053 109.115 98.7878C107.834 100.07 106.168 100.898 104.372 101.146C102.576 101.393 100.749 101.046 99.1685 100.158C99.7971 101.277 100.676 102.234 101.737 102.957C102.797 103.679 104.011 104.146 105.282 104.321C106.553 104.495 107.848 104.374 109.064 103.965C110.28 103.556 111.385 102.871 112.292 101.964C113.2 101.056 113.885 99.9512 114.294 98.735C114.702 97.5187 114.824 96.2243 114.649 94.9531C114.474 93.682 114.008 92.4685 113.285 91.4079C112.563 90.3473 111.605 89.4683 110.487 88.8397H110.477Z" fill="url(#paint7_linear_360_72)"/>
<path d="M171.809 164.579H137.06C130.443 161.27 122.502 146.376 132.095 135.126C141.688 123.876 171.809 119.574 171.809 111.301C171.809 119.583 201.919 123.876 211.517 135.126C221.116 146.376 213.174 161.27 206.552 164.579H171.809Z" fill="url(#paint8_linear_360_72)"/>
<path d="M168.266 89.7216C167.352 91.301 166.985 93.1383 167.222 94.9478C167.459 96.7574 168.287 98.438 169.578 99.7285C170.868 101.019 172.549 101.847 174.358 102.084C176.168 102.321 178.005 101.954 179.585 101.04C178.956 102.158 178.077 103.116 177.016 103.839C175.956 104.561 174.742 105.028 173.471 105.202C172.2 105.377 170.906 105.256 169.689 104.847C168.473 104.438 167.368 103.753 166.461 102.845C165.553 101.938 164.869 100.833 164.46 99.6168C164.051 98.4006 163.929 97.1062 164.104 95.835C164.279 94.5638 164.746 93.3504 165.468 92.2898C166.19 91.2292 167.148 90.3502 168.266 89.7216Z" fill="url(#paint9_linear_360_72)"/>
<path d="M171.813 176.194H132.602V205.281C141.226 209.738 150.547 212.691 160.164 214.012V202.27C157.947 201.159 155.292 196.17 158.502 192.399C161.713 188.628 171.809 187.191 171.809 184.418C171.809 187.191 181.899 188.628 185.115 192.399C188.33 196.17 185.67 201.169 183.448 202.27V214.012C193.066 212.696 202.389 209.748 211.015 205.296V176.209L171.813 176.194Z" fill="url(#paint10_linear_360_72)"/>
<path d="M249.784 136.056H223.576C222.531 136.056 221.53 135.642 220.791 134.904C220.051 134.166 219.636 133.164 219.634 132.12V129.635H253.74V132.12C253.74 132.638 253.637 133.152 253.438 133.631C253.239 134.11 252.948 134.545 252.58 134.91C252.212 135.276 251.776 135.566 251.296 135.762C250.816 135.959 250.302 136.059 249.784 136.056Z" fill="url(#paint11_linear_360_72)"/>
<path d="M221.846 129.64C219.021 128.227 215.629 121.873 219.727 117.069C223.825 112.265 236.677 110.429 236.677 106.896C236.677 110.429 249.535 112.256 253.628 117.069C257.721 121.883 254.334 128.227 251.513 129.64H221.846Z" fill="url(#paint12_linear_360_72)"/>
<path d="M233.155 88.8397C232.262 90.4202 231.912 92.2496 232.158 94.048C232.403 95.8464 233.231 97.5149 234.514 98.7984C235.798 100.082 237.466 100.91 239.265 101.155C241.063 101.401 242.892 101.05 244.473 100.158C243.844 101.277 242.965 102.234 241.905 102.957C240.844 103.679 239.631 104.146 238.36 104.321C237.088 104.495 235.794 104.374 234.578 103.965C233.362 103.556 232.256 102.871 231.349 101.964C230.442 101.056 229.757 99.9512 229.348 98.735C228.939 97.5187 228.817 96.2243 228.992 94.9531C229.167 93.682 229.634 92.4685 230.356 91.4079C231.078 90.3473 232.036 89.4683 233.155 88.8397Z" fill="url(#paint13_linear_360_72)"/>
<defs>
<linearGradient id="paint0_linear_360_72" x1="171.806" y1="145.932" x2="171.806" y2="254.042" gradientUnits="userSpaceOnUse">
<stop stop-color="#C0A37C"/>
<stop offset="1" stop-color="#FFD482"/>
</linearGradient>
<linearGradient id="paint1_linear_360_72" x1="171.806" y1="152.71" x2="171.806" y2="254.038" gradientUnits="userSpaceOnUse">
<stop stop-color="#C0A37C"/>
<stop offset="1" stop-color="#FFD482"/>
</linearGradient>
<linearGradient id="paint2_linear_360_72" x1="236.687" y1="139.389" x2="236.687" y2="198.168" gradientUnits="userSpaceOnUse">
<stop stop-color="#C0A37C"/>
<stop offset="1" stop-color="#FFD482"/>
</linearGradient>
<linearGradient id="paint3_linear_360_72" x1="106.925" y1="139.389" x2="106.925" y2="198.168" gradientUnits="userSpaceOnUse">
<stop stop-color="#C0A37C"/>
<stop offset="1" stop-color="#FFD482"/>
</linearGradient>
<linearGradient id="paint4_linear_360_72" x1="171.806" y1="164.579" x2="171.806" y2="172.54" gradientUnits="userSpaceOnUse">
<stop stop-color="#C0A37C"/>
<stop offset="1" stop-color="#FFD482"/>
</linearGradient>
<linearGradient id="paint5_linear_360_72" x1="106.945" y1="129.635" x2="106.945" y2="136.056" gradientUnits="userSpaceOnUse">
<stop stop-color="#C0A37C"/>
<stop offset="1" stop-color="#FFD482"/>
</linearGradient>
<linearGradient id="paint6_linear_360_72" x1="106.936" y1="106.896" x2="106.936" y2="129.64" gradientUnits="userSpaceOnUse">
<stop stop-color="#C0A37C"/>
<stop offset="1" stop-color="#FFD482"/>
</linearGradient>
<linearGradient id="paint7_linear_360_72" x1="106.948" y1="88.8397" x2="106.948" y2="104.398" gradientUnits="userSpaceOnUse">
<stop stop-color="#C0A37C"/>
<stop offset="1" stop-color="#FFD482"/>
</linearGradient>
<linearGradient id="paint8_linear_360_72" x1="171.808" y1="111.301" x2="171.808" y2="164.579" gradientUnits="userSpaceOnUse">
<stop stop-color="#C0A37C"/>
<stop offset="1" stop-color="#FFD482"/>
</linearGradient>
<linearGradient id="paint9_linear_360_72" x1="171.805" y1="89.7216" x2="171.805" y2="105.28" gradientUnits="userSpaceOnUse">
<stop stop-color="#C0A37C"/>
<stop offset="1" stop-color="#FFD482"/>
</linearGradient>
<linearGradient id="paint10_linear_360_72" x1="171.809" y1="176.194" x2="171.809" y2="214.012" gradientUnits="userSpaceOnUse">
<stop stop-color="#C0A37C"/>
<stop offset="1" stop-color="#FFD482"/>
</linearGradient>
<linearGradient id="paint11_linear_360_72" x1="236.687" y1="129.635" x2="236.687" y2="136.057" gradientUnits="userSpaceOnUse">
<stop stop-color="#C0A37C"/>
<stop offset="1" stop-color="#FFD482"/>
</linearGradient>
<linearGradient id="paint12_linear_360_72" x1="236.676" y1="106.896" x2="236.676" y2="129.64" gradientUnits="userSpaceOnUse">
<stop stop-color="#C0A37C"/>
<stop offset="1" stop-color="#FFD482"/>
</linearGradient>
<linearGradient id="paint13_linear_360_72" x1="236.694" y1="88.8397" x2="236.694" y2="104.398" gradientUnits="userSpaceOnUse">
<stop stop-color="#C0A37C"/>
<stop offset="1" stop-color="#FFD482"/>
</linearGradient>
</defs>
</svg>
